Coordinates
version=1
nRows=6
nColumns=36
inDegrees=yes

Units are S.I. units (second, meters, Newtons, ...)
If the header above contains a line with 'inDegrees', this indicates whether rotational values are in degrees (yes) or radians (no).

endheader
time	pelvis_tilt	pelvis_list	pelvis_rotation	pelvis_tx	pelvis_ty	pelvis_tz	hip_flexion_r	hip_adduction_r	hip_rotation_r	knee_angle_r	knee_angle_r_beta	ankle_angle_r	subtalar_angle_r	mtp_angle_r	hip_flexion_l	hip_adduction_l	hip_rotation_l	knee_angle_l	knee_angle_l_beta	ankle_angle_l	subtalar_angle_l	mtp_angle_l	lumbar_extension	lumbar_bending	lumbar_rotation	arm_flex_r	arm_add_r	arm_rot_r	elbow_flex_r	pro_sup_r	arm_flex_l	arm_add_l	arm_rot_l	elbow_flex_l	pro_sup_l
      4.40000000	     10.63528252	     -7.35380263	      9.76679319	      0.78424826	      0.83926182	     -0.04509897	     44.74146469	      0.41168874	      0.62689855	     13.25125155	      0.23127797	    -18.43797576	     -8.29783786	     -7.49999987	     23.08076772	      2.42240695	      3.62423573	     54.96190911	      0.95926628	     19.45851367	    -15.12968019	     -7.49999987	    -36.32098794	      5.70823999	      4.08246618	     67.22885454	      7.69747338	     71.22557602	    119.89486323	     90.72511400	     82.55978836	     11.15497418	     73.62162917	    123.71563889	     72.30790834
      4.41666670	     11.21440176	     -7.53649886	     10.04189632	      0.78404130	      0.85079968	     -0.04591352	     44.02920337	      0.59715301	      0.39870206	     13.24160126	      0.23110954	    -18.58373434	     -7.80029271	     -7.49999987	     20.84805503	      2.42213625	      4.77280833	     52.02011169	      0.90792223	     17.57713483	    -16.54457071	     -7.49999987	    -35.60209174	      6.43799491	      3.77000345	     66.63243175	      7.70135914	     70.40257746	    119.24156432	     89.52395645	     81.79234997	     10.55774898	     72.56544296	    123.56075087	     71.54039093
      4.43333330	     11.62690001	     -7.81583551	      9.90902010	      0.79269567	      0.86657445	     -0.04590190	     42.97284828	      1.19102515	      0.40934787	     13.13753858	      0.22929330	    -18.55732983	     -7.91664067	     -7.49999987	     18.04356274	      2.06166465	      5.67976465	     48.79197406	      0.85158060	     16.35193429	    -17.39105536	     -7.49999987	    -34.66693813	      7.10061007	      4.04933106	     65.40879212	      7.56589575	     70.59135910	    118.96118566	     88.20600491	     79.94343704	     10.51221521	     72.02617999	    123.92464263	     70.90820966
      4.45000000	     11.92832780	     -8.15922798	      9.28862143	      0.79234588	      0.87334269	     -0.05106947	     42.59976580	      1.76551858	      0.54243787	     13.14489745	      0.22942174	    -18.38465640	     -8.61878376	     -7.49999987	     14.73675934	      2.31128564	      6.87332200	     44.23982160	      0.77213055	     15.05926384	    -18.81211433	     -7.49999987	    -33.28224822	      7.41903686	      3.76730292	     64.12591121	      7.58954064	     71.48837425	    119.30843049	     88.83534246	     78.18441994	     10.04909668	     71.22245848	    123.33352205	     70.92288961
      4.46666670	     11.85065646	     -9.09213171	      8.70995040	      0.79613720	      0.88228253	     -0.04840752	     42.94271480	      2.90713397	      0.62120099	     13.61845746	      0.23768692	    -18.17454223	     -9.07355367	     -7.49999987	     12.06268212	      1.31364642	      7.74464463	     39.77031091	      0.69412287	     14.25836493	    -18.92900316	     -7.49999987	    -31.68298734	      8.41670947	      3.84711611	     62.75213179	      7.45523402	     72.09742393	    120.28647048	     88.98778634	     76.07169926	      9.96074278	     71.10069078	    123.50905955	     70.90890161
      4.48333330	     11.53730033	     -9.85544480	      8.49898139	      0.79752225	      0.89551010	     -0.04971880	     43.43360316	      3.65759525	      0.62765738	     14.27430183	      0.24913357	    -18.38619493	     -9.73852545	     -7.49999987	     10.29731141	      0.59381865	      8.76181614	     36.18109888	      0.63147930	     11.64103671	    -20.97519420	     -7.49999987	    -30.47604525	      9.52267116	      4.17850074	     61.86525676	      7.78511176	     71.98365836	    120.00592049	     88.62210605	     73.93981960	     10.68193654	     70.73624822	    124.33800457	     70.64019990
